PathFileType	4	(X/Y/Z)	Patient4_TMGait_0pt7_01_right_41.trc.trc
DataRate	CameraRate	NumFrames	NumMarkers	Units	OrigDataRate	OrigDataStartFrame	OrigNumFrames
85.365853658537	85.365853658537	4	33	mm	85.365853658537	36	       141
Frame#	Time	Sacral			L.Shoulder			Chest			R.Shoulder			Neck			R.ASIS			L.ASIS			R.Thigh.Superior			R.Thigh.Lateral			R.Thigh.Inferior			R.Patella			L.Thigh.Superior			L.Thigh.Lateral			L.Thigh.Inferior			L.Patella			L.Shank.Superior			L.Shank.Lateral			L.Shank.Inferior			R.Shank.Superior			R.Shank.Lateral			R.Shank.Inferior			R.Heel			R.Midfoot.Superior			R.Midfoot.Lateral			R.Toe			L.Heel			L.Midfoot.Lateral			L.Midfoot.Superior			L.Toe			L.Elbow			L.Wrist			R.Elbow			R.Wrist			
		X1	Y1	Z1	X2	Y2	Z2	X3	Y3	Z3	X4	Y4	Z4	X5	Y5	Z5	X6	Y6	Z6	X7	Y7	Z7	X8	Y8	Z8	X9	Y9	Z9	X10	Y10	Z10	X11	Y11	Z11	X12	Y12	Z12	X13	Y13	Z13	X14	Y14	Z14	X15	Y15	Z15	X16	Y16	Z16	X17	Y17	Z17	X18	Y18	Z18	X19	Y19	Z19	X20	Y20	Z20	X21	Y21	Z21	X22	Y22	Z22	X23	Y23	Z23	X24	Y24	Z24	X25	Y25	Z25	X26	Y26	Z26	X27	Y27	Z27	X28	Y28	Z28	X29	Y29	Z29	X30	Y30	Z30	X31	Y31	Z31	X32	Y32	Z32	X33	Y33	Z33	

36	47.300000000000	857.105166792430	994.050561463001	464.687737639801	1040.180809246146	1423.558533288379	281.896087604345	1140.660615403690	1351.134922725373	444.263028693032	1055.667812614669	1428.150109501135	615.688931292890	1044.095154681640	1483.336244841411	435.582993989249	1087.590147304075	931.004903774527	580.099939726954	1071.192870266205	952.137500303853	305.189587941915	1159.111010344533	751.066724429061	545.255116075754	1099.882481221505	630.965273156798	608.482212036276	1184.158472246239	592.410515365058	527.086501132480	1200.915947911189	503.085689058180	534.370742661129	1092.032056807086	729.239772550058	324.715802857903	987.489275580658	624.592639403051	262.455740851692	1064.843106678223	531.217939392150	316.934070109750	1050.412413486072	448.728414732120	314.690448327082	983.875755054960	393.610188165463	308.918876688854	845.126471859347	343.648809176432	262.698853170267	839.023639343628	214.690990907817	319.197680912078	1179.764887067194	411.372618337586	543.909082571976	1117.914525096295	302.406300429224	607.029800341238	1169.590111552808	211.104075308697	546.579737220606	1048.608892819598	42.172530205223	514.651618587631	1216.816818408150	98.996024351871	555.593817743787	1129.410866287112	36.588676765834	592.058435556232	1336.771343179840	51.302538518345	588.409142727046	653.898428970333	129.727941710438	359.510209379467	716.330602458113	91.029478139191	280.448248110305	817.740854847733	114.825782890272	300.863539657537	909.841977548784	32.564990234901	276.541921800687	1052.532503293226	1088.825242365585	137.288795023487	1303.391305141481	1066.173199296915	175.180180099180	935.888640349171	1103.189080486360	729.090724946617	925.180101927444	840.999818894719	730.600456490255	
37	47.311714285714	856.591907609140	995.741221512060	468.456089088624	1039.695823975909	1424.955558049444	284.992988854055	1141.417236067989	1351.909003608862	446.267515680169	1058.405317147494	1429.014263256624	618.460091128439	1045.292772554667	1484.358132767234	438.785246008428	1087.505470478613	932.170692899095	582.423508586194	1069.771310393416	952.750984959773	307.363165222175	1156.764847280645	750.101418472206	549.309463246362	1094.993303207754	631.024190154986	610.996357237903	1179.300720738066	591.720107650858	529.948648747119	1194.795867246808	502.412984594990	536.634634374800	1096.580745450173	731.981453809809	326.964760121825	996.694706686721	624.310431208175	264.144929328450	1077.615322294262	532.826050664370	318.216317700366	1064.358718121196	448.870680246090	315.161084818841	995.425596338992	394.188527656654	309.754988431570	854.459798485448	349.871863358790	264.148440349136	843.859647057211	221.038680581265	319.984690796880	1173.066458545759	410.959319881758	545.955934269003	1110.380382164118	302.068674441725	608.290481821059	1161.860174485136	210.811106016491	547.603594067277	1040.430503890832	42.052469306564	514.792891543615	1208.561256480130	99.001139067994	555.892999368057	1121.185547213153	36.541221072044	592.254743207481	1328.529685634021	51.457694400777	588.607600043360	655.539316681580	146.245711786004	360.901528450883	715.081809679087	103.632682402346	281.507704316720	818.020331367293	120.665058845371	301.356929987783	903.477495444565	31.788219578760	276.588593050179	1043.791259937271	1088.883073215659	141.975379984197	1294.195052201070	1056.255996132231	177.231602313212	944.831767877249	1101.284236341673	732.896614616512	941.539583092667	838.883675038511	732.080818674077	
38	47.323428571429	855.883920104337	997.344704516524	472.110003269135	1039.010482943254	1426.140966225024	287.926801705638	1142.085960745144	1352.462044120802	448.037344670000	1061.218414783840	1429.707636227916	621.056062363784	1046.416990808169	1485.212455397230	441.813022487324	1087.172521243836	933.209954698233	584.668664652423	1068.087015109154	953.218434572908	309.523431004451	1153.963588251943	749.065323629479	553.313080686849	1089.819708747124	631.100130852037	613.645526308028	1174.036041126313	590.994788895248	532.876979081063	1188.249334593799	501.732995662093	539.158878239279	1101.110749633470	735.017947730925	329.242437087879	1006.258666267186	624.439068804017	265.578596922584	1090.575070726528	535.069537098245	319.464981657854	1078.689464872713	449.737704411308	315.724921597236	1007.669426184998	395.302553712577	310.620596216927	864.805206381099	356.376082535198	265.566409651522	849.847743877050	227.899457560676	320.990557982096	1166.018885528184	410.536866166738	548.203920741665	1102.550710787865	301.660604865367	609.691556193595	1153.968026413946	210.511867703131	548.762286378559	1032.211047783613	41.940276498235	514.948727860898	1200.340480038185	98.926558465697	556.237842468864	1112.926504271182	36.451340126990	592.456397248173	1320.294048544557	51.420092485108	588.783411983738	658.866371916467	163.041724276344	362.606461304125	715.450528985091	116.926908509605	282.806175034590	819.614150966565	127.357358362470	302.145192902715	898.457162764091	31.505479100469	276.665772042885	1034.828176805520	1088.889590115885	146.689105972013	1284.257859628110	1045.512210820305	179.240777544976	953.915867777154	1099.493884285320	736.829522394045	958.877501403246	837.080288044139	733.692525640370	
39	47.335142857143	855.017368355861	998.820114987335	475.630508658241	1038.160233420583	1427.110563598744	290.665907810213	1142.653708291841	1352.781579601091	449.568392958295	1064.061437755157	1430.215018954682	623.461804779144	1047.477878809758	1485.905944912988	444.626875993035	1086.615379114920	934.153166975156	586.874435156881	1066.157921249829	953.564782671350	311.700793626804	1150.805648140520	748.083134800184	557.128172242829	1084.543765452186	631.238911223942	616.387733378020	1168.529151072286	590.287249249794	535.820294333254	1181.447448321106	501.081104718512	541.885832418432	1105.499727111066	738.379362262262	331.571900225582	1015.960442327953	625.092876204271	266.771089075636	1103.466542682645	538.031738269299	320.655387930595	1093.181479493305	451.424445052007	316.304149736624	1020.405198634060	397.020140714786	311.463126713772	875.953001304362	363.054054605629	266.948379290124	856.962933971182	235.097036219809	322.184079451846	1158.776526616984	410.131764666906	550.592226918607	1094.567073837481	301.236238073032	611.218928310106	1145.990751411710	210.225067523780	550.023717602778	1023.961125283945	41.850177418982	515.126462205076	1192.165990885584	98.798963556345	556.625471840342	1104.645633070030	36.339815461955	592.667197456286	1312.071994054448	51.212141282976	588.941185086666	663.891655900827	179.461571711988	364.602703412197	717.602584743802	130.372868581313	284.339119077224	822.682097289709	134.703200011951	303.202888072779	895.256622675479	31.924043839521	276.809499675123	1025.694947699038	1088.825676706865	151.435674458044	1273.528363344972	1033.988168705428	181.196141177002	963.145690320113	1097.766508293292	740.809049521194	977.072885515043	835.612091475882	735.421895588720	
